<mxfile host="app.diagrams.net" modified="2022-10-04T21:31:07.163Z" agent="5.0 (Windows NT 10.0; Win64; x64) AppleWebKit/537.36 (KHTML, like Gecko) Chrome/104.0.5112.102 Safari/537.36 OPR/90.0.4480.117" etag="9kVP2MmxHdIKaQF0N0of" version="20.3.2" type="github">
  <diagram id="eWBVMnc0Ju7z1fGuHDlJ" name="Page-1">
    <mxGraphModel dx="511" dy="328" grid="1" gridSize="10" guides="1" tooltips="1" connect="1" arrows="1" fold="1" page="1" pageScale="1" pageWidth="850" pageHeight="1100" math="0" shadow="0">
      <root>
        <mxCell id="0" />
        <mxCell id="1" parent="0" />
        <mxCell id="TAUxpG1QcszZF0AKwn2N-4" style="edgeStyle=orthogonalEdgeStyle;rounded=0;orthogonalLoop=1;jettySize=auto;html=1;exitX=1;exitY=0.5;exitDx=0;exitDy=0;entryX=-0.021;entryY=0.192;entryDx=0;entryDy=0;entryPerimeter=0;fillColor=#f8cecc;strokeColor=#b85450;" edge="1" parent="1" source="TAUxpG1QcszZF0AKwn2N-1" target="TAUxpG1QcszZF0AKwn2N-3">
          <mxGeometry relative="1" as="geometry" />
        </mxCell>
        <mxCell id="TAUxpG1QcszZF0AKwn2N-7" style="edgeStyle=orthogonalEdgeStyle;rounded=0;orthogonalLoop=1;jettySize=auto;html=1;exitX=0.75;exitY=0;exitDx=0;exitDy=0;entryX=0.433;entryY=0.002;entryDx=0;entryDy=0;entryPerimeter=0;fillColor=#f8cecc;strokeColor=#b85450;" edge="1" parent="1" source="TAUxpG1QcszZF0AKwn2N-1" target="TAUxpG1QcszZF0AKwn2N-6">
          <mxGeometry relative="1" as="geometry">
            <mxPoint x="170" y="40" as="targetPoint" />
            <Array as="points">
              <mxPoint x="115" y="40" />
              <mxPoint x="502" y="40" />
            </Array>
          </mxGeometry>
        </mxCell>
        <mxCell id="TAUxpG1QcszZF0AKwn2N-1" value="GLV+" style="rounded=1;whiteSpace=wrap;html=1;fillColor=#f8cecc;strokeColor=#b85450;" vertex="1" parent="1">
          <mxGeometry x="40" y="120" width="100" height="30" as="geometry" />
        </mxCell>
        <mxCell id="TAUxpG1QcszZF0AKwn2N-5" style="edgeStyle=orthogonalEdgeStyle;rounded=0;orthogonalLoop=1;jettySize=auto;html=1;exitX=1;exitY=0.5;exitDx=0;exitDy=0;entryX=-0.024;entryY=0.807;entryDx=0;entryDy=0;entryPerimeter=0;fillColor=#e1d5e7;strokeColor=#9673a6;" edge="1" parent="1" source="TAUxpG1QcszZF0AKwn2N-2" target="TAUxpG1QcszZF0AKwn2N-3">
          <mxGeometry relative="1" as="geometry" />
        </mxCell>
        <mxCell id="TAUxpG1QcszZF0AKwn2N-2" value="GLV-" style="rounded=1;whiteSpace=wrap;html=1;fillColor=#e1d5e7;strokeColor=#9673a6;" vertex="1" parent="1">
          <mxGeometry x="40" y="170" width="100" height="30" as="geometry" />
        </mxCell>
        <mxCell id="TAUxpG1QcszZF0AKwn2N-9" style="edgeStyle=orthogonalEdgeStyle;rounded=0;orthogonalLoop=1;jettySize=auto;html=1;exitX=1;exitY=0.5;exitDx=0;exitDy=0;entryX=0;entryY=0.5;entryDx=0;entryDy=0;fillColor=#f8cecc;strokeColor=#b85450;" edge="1" parent="1" source="TAUxpG1QcszZF0AKwn2N-3" target="TAUxpG1QcszZF0AKwn2N-8">
          <mxGeometry relative="1" as="geometry" />
        </mxCell>
        <mxCell id="TAUxpG1QcszZF0AKwn2N-10" style="edgeStyle=orthogonalEdgeStyle;rounded=0;orthogonalLoop=1;jettySize=auto;html=1;exitX=0.75;exitY=0;exitDx=0;exitDy=0;entryX=0.25;entryY=0;entryDx=0;entryDy=0;fillColor=#f8cecc;strokeColor=#b85450;" edge="1" parent="1" source="TAUxpG1QcszZF0AKwn2N-3" target="TAUxpG1QcszZF0AKwn2N-6">
          <mxGeometry relative="1" as="geometry">
            <Array as="points">
              <mxPoint x="225" y="100" />
              <mxPoint x="480" y="100" />
            </Array>
          </mxGeometry>
        </mxCell>
        <mxCell id="TAUxpG1QcszZF0AKwn2N-3" value="ISO&lt;br&gt;5V" style="rounded=1;whiteSpace=wrap;html=1;fillColor=#f8cecc;strokeColor=#b85450;" vertex="1" parent="1">
          <mxGeometry x="180" y="120" width="60" height="80" as="geometry" />
        </mxCell>
        <mxCell id="TAUxpG1QcszZF0AKwn2N-6" value="SPDT&lt;br&gt;Relay" style="rounded=1;whiteSpace=wrap;html=1;fillColor=#dae8fc;strokeColor=#6c8ebf;" vertex="1" parent="1">
          <mxGeometry x="450" y="130" width="120" height="60" as="geometry" />
        </mxCell>
        <mxCell id="TAUxpG1QcszZF0AKwn2N-8" value="3V&lt;br&gt;Ref" style="rounded=1;whiteSpace=wrap;html=1;" vertex="1" parent="1">
          <mxGeometry x="280" y="140" width="40" height="40" as="geometry" />
        </mxCell>
        <mxCell id="TAUxpG1QcszZF0AKwn2N-12" value="OP Amp" style="triangle;whiteSpace=wrap;html=1;" vertex="1" parent="1">
          <mxGeometry x="200" y="260" width="110" height="110" as="geometry" />
        </mxCell>
      </root>
    </mxGraphModel>
  </diagram>
</mxfile>
